<mxfile host="65bd71144e">
    <diagram id="LZTKb6cRXTuGYm4_Gl0H" name="Page-1">
        <mxGraphModel dx="1066" dy="617" grid="1" gridSize="10" guides="1" tooltips="1" connect="1" arrows="1" fold="1" page="1" pageScale="1" pageWidth="827" pageHeight="1169" math="0" shadow="0">
            <root>
                <mxCell id="0"/>
                <mxCell id="1" parent="0"/>
                <mxCell id="2" value="Â Use Case Diagram Sistem Penunjang Keputusan Pemilihan Karyawan Berprestasi" style="shape=table;startSize=30;container=1;collapsible=0;childLayout=tableLayout;align=left;fontStyle=1;fontSize=15;fillColor=none;" parent="1" vertex="1">
                    <mxGeometry width="820" height="940" as="geometry"/>
                </mxCell>
                <mxCell id="3" value="" style="shape=tableRow;horizontal=0;startSize=0;swimlaneHead=0;swimlaneBody=0;strokeColor=inherit;top=0;left=0;bottom=0;right=0;collapsible=0;dropTarget=0;fillColor=none;points=[[0,0.5],[1,0.5]];portConstraint=eastwest;" parent="2" vertex="1">
                    <mxGeometry y="30" width="820" height="910" as="geometry"/>
                </mxCell>
                <mxCell id="4" value="" style="shape=partialRectangle;html=1;whiteSpace=wrap;connectable=0;strokeColor=inherit;overflow=hidden;fillColor=none;top=0;left=0;bottom=0;right=0;pointerEvents=1;" parent="3" vertex="1">
                    <mxGeometry width="820" height="910" as="geometry">
                        <mxRectangle width="820" height="910" as="alternateBounds"/>
                    </mxGeometry>
                </mxCell>
                <mxCell id="5" value="&lt;span&gt;Login&lt;/span&gt;" style="ellipse;whiteSpace=wrap;html=1;fillColor=none;fontStyle=1;fontSize=13;strokeWidth=3;" parent="1" vertex="1">
                    <mxGeometry x="580" y="40" width="160" height="70" as="geometry"/>
                </mxCell>
                <mxCell id="6" value="&lt;span&gt;Mengelola Data Kriteria&lt;/span&gt;" style="ellipse;whiteSpace=wrap;html=1;fillColor=none;fontStyle=1;fontSize=13;strokeWidth=3;" parent="1" vertex="1">
                    <mxGeometry x="585" y="160" width="150" height="90" as="geometry"/>
                </mxCell>
                <mxCell id="7" value="&lt;span&gt;Mengelola Data Karyawan&lt;/span&gt;" style="ellipse;whiteSpace=wrap;html=1;fillColor=none;fontStyle=1;fontSize=13;strokeWidth=3;" parent="1" vertex="1">
                    <mxGeometry x="600" y="280" width="160" height="90" as="geometry"/>
                </mxCell>
                <mxCell id="8" value="&lt;span&gt;Mengelola Bobot Kriteria Berdasarkan AHP&lt;/span&gt;" style="ellipse;whiteSpace=wrap;html=1;fillColor=none;fontStyle=1;fontSize=13;strokeWidth=3;" parent="1" vertex="1">
                    <mxGeometry x="600" y="400" width="160" height="80" as="geometry"/>
                </mxCell>
                <mxCell id="9" value="&lt;span&gt;Memberi Penilaian&lt;/span&gt;" style="ellipse;whiteSpace=wrap;html=1;fillColor=none;fontStyle=1;fontSize=13;strokeWidth=3;" parent="1" vertex="1">
                    <mxGeometry x="610" y="520" width="160" height="80" as="geometry"/>
                </mxCell>
                <mxCell id="10" value="&lt;span&gt;Mengelola Data Penilaian&lt;/span&gt;" style="ellipse;whiteSpace=wrap;html=1;fillColor=none;fontStyle=1;fontSize=13;strokeWidth=3;" parent="1" vertex="1">
                    <mxGeometry x="420" y="590" width="160" height="80" as="geometry"/>
                </mxCell>
                <mxCell id="11" value="&lt;span&gt;Cetak Penilaian&lt;/span&gt;" style="ellipse;whiteSpace=wrap;html=1;fillColor=none;fontStyle=1;fontSize=13;strokeWidth=3;" parent="1" vertex="1">
                    <mxGeometry x="630" y="670" width="170" height="90" as="geometry"/>
                </mxCell>
                <mxCell id="12" value="Admin&amp;nbsp;" style="shape=umlActor;verticalLabelPosition=bottom;verticalAlign=top;html=1;outlineConnect=0;fontStyle=1;fontSize=13;strokeWidth=3;" parent="1" vertex="1">
                    <mxGeometry x="40" y="420" width="30" height="60" as="geometry"/>
                </mxCell>
                <mxCell id="13" value="" style="endArrow=classic;html=1;entryX=-0.01;entryY=0.634;entryDx=0;entryDy=0;entryPerimeter=0;fontStyle=1;fontSize=13;strokeWidth=3;" parent="1" source="12" target="5" edge="1">
                    <mxGeometry width="50" height="50" relative="1" as="geometry">
                        <mxPoint x="410" y="500" as="sourcePoint"/>
                        <mxPoint x="460" y="450" as="targetPoint"/>
                    </mxGeometry>
                </mxCell>
                <mxCell id="14" value="" style="endArrow=classic;html=1;entryX=-0.005;entryY=0.663;entryDx=0;entryDy=0;entryPerimeter=0;fontStyle=1;fontSize=13;strokeWidth=3;" parent="1" target="6" edge="1">
                    <mxGeometry width="50" height="50" relative="1" as="geometry">
                        <mxPoint x="70" y="440" as="sourcePoint"/>
                        <mxPoint x="588" y="94" as="targetPoint"/>
                    </mxGeometry>
                </mxCell>
                <mxCell id="15" value="" style="endArrow=classic;html=1;entryX=0;entryY=0.5;entryDx=0;entryDy=0;fontStyle=1;fontSize=13;strokeWidth=3;" parent="1" target="7" edge="1">
                    <mxGeometry width="50" height="50" relative="1" as="geometry">
                        <mxPoint x="70" y="440" as="sourcePoint"/>
                        <mxPoint x="598" y="104" as="targetPoint"/>
                    </mxGeometry>
                </mxCell>
                <mxCell id="16" value="" style="endArrow=classic;html=1;entryX=0;entryY=0.5;entryDx=0;entryDy=0;fontStyle=1;fontSize=13;strokeWidth=3;" parent="1" target="8" edge="1">
                    <mxGeometry width="50" height="50" relative="1" as="geometry">
                        <mxPoint x="70" y="440" as="sourcePoint"/>
                        <mxPoint x="608" y="114" as="targetPoint"/>
                    </mxGeometry>
                </mxCell>
                <mxCell id="17" value="" style="endArrow=classic;html=1;entryX=0;entryY=0.5;entryDx=0;entryDy=0;exitX=1;exitY=0.3333333333333333;exitDx=0;exitDy=0;exitPerimeter=0;fontStyle=1;fontSize=13;strokeWidth=3;" parent="1" source="12" target="9" edge="1">
                    <mxGeometry width="50" height="50" relative="1" as="geometry">
                        <mxPoint x="110" y="480" as="sourcePoint"/>
                        <mxPoint x="618" y="124" as="targetPoint"/>
                    </mxGeometry>
                </mxCell>
                <mxCell id="19" value="" style="endArrow=classic;html=1;entryX=1;entryY=0.5;entryDx=0;entryDy=0;exitX=0.544;exitY=1.025;exitDx=0;exitDy=0;exitPerimeter=0;fontStyle=1;fontSize=13;strokeWidth=3;dashed=1;dashPattern=1 2;" parent="1" source="9" target="10" edge="1">
                    <mxGeometry relative="1" as="geometry">
                        <mxPoint x="460" y="610" as="sourcePoint"/>
                        <mxPoint x="560" y="610" as="targetPoint"/>
                    </mxGeometry>
                </mxCell>
                <mxCell id="20" value="&amp;lt;&amp;lt;extends&amp;gt;" style="edgeLabel;resizable=0;html=1;;align=center;verticalAlign=middle;fontStyle=1;fontSize=13;" parent="19" connectable="0" vertex="1">
                    <mxGeometry relative="1" as="geometry"/>
                </mxCell>
                <mxCell id="21" value="" style="endArrow=classic;html=1;entryX=0.5;entryY=0;entryDx=0;entryDy=0;exitX=0.544;exitY=1;exitDx=0;exitDy=0;exitPerimeter=0;fontStyle=1;fontSize=13;strokeWidth=3;dashed=1;dashPattern=1 2;" parent="1" source="9" target="11" edge="1">
                    <mxGeometry relative="1" as="geometry">
                        <mxPoint x="654" y="604" as="sourcePoint"/>
                        <mxPoint x="542" y="653" as="targetPoint"/>
                    </mxGeometry>
                </mxCell>
                <mxCell id="22" value="&amp;lt;&amp;lt;extends&amp;gt;" style="edgeLabel;resizable=0;html=1;;align=center;verticalAlign=middle;fontStyle=1;fontSize=13;" parent="21" connectable="0" vertex="1">
                    <mxGeometry relative="1" as="geometry"/>
                </mxCell>
                <mxCell id="23" value="" style="endArrow=classic;html=1;strokeWidth=3;" parent="1" target="10" edge="1">
                    <mxGeometry width="50" height="50" relative="1" as="geometry">
                        <mxPoint x="70" y="440" as="sourcePoint"/>
                        <mxPoint x="610" y="570" as="targetPoint"/>
                    </mxGeometry>
                </mxCell>
                <mxCell id="24" value="&lt;span&gt;Log Out&lt;/span&gt;" style="ellipse;whiteSpace=wrap;html=1;fillColor=none;fontStyle=1;fontSize=13;strokeWidth=3;" parent="1" vertex="1">
                    <mxGeometry x="640" y="820" width="160" height="80" as="geometry"/>
                </mxCell>
                <mxCell id="25" value="" style="endArrow=classic;html=1;fontStyle=1;fontSize=13;strokeWidth=3;" parent="1" target="24" edge="1">
                    <mxGeometry width="50" height="50" relative="1" as="geometry">
                        <mxPoint x="70" y="440" as="sourcePoint"/>
                        <mxPoint x="456" y="698" as="targetPoint"/>
                    </mxGeometry>
                </mxCell>
            </root>
        </mxGraphModel>
    </diagram>
</mxfile>